<svg id="eQGBTtqvoJ61" xmlns="http://www.w3.org/2000/svg" xmlns:xlink="http://www.w3.org/1999/xlink" viewBox="0 0 392.533 392.533" shape-rendering="geometricPrecision" text-rendering="geometricPrecision"><g transform="translate(.000505 0.000987)"><g><g><path d="M196.137,45.834c-25.859,0-46.998,21.075-46.998,46.998c0,25.859,21.139,46.933,46.998,46.933s46.998-21.075,46.998-46.998-21.139-46.933-46.998-46.933Zm0,72.017c-13.77,0-25.083-11.313-25.083-25.083s11.248-25.083,25.083-25.083s25.083,11.313,25.083,25.083c0,13.769-11.313,25.083-25.083,25.083Z" transform="translate(.064285 47.837013)" stroke="#000" stroke-width="7.85066"/></g></g><g><g><path d="M258.521,163.362c-39.887-15.515-84.752-15.515-124.638,0-13.059,5.107-21.786,18.101-21.786,32.388v44.347c-.065,6.012,4.849,10.925,10.861,10.925h146.424c6.012,0,10.925-4.848,10.925-10.925v-44.347c0-14.287-8.727-27.281-21.786-32.388Zm0,65.874h-124.638v-33.422c0-5.301,3.168-10.214,7.887-12.024c34.844-13.511,74.02-13.511,108.865,0c4.719,1.875,7.887,6.659,7.887,12.024v33.422h-.001Z" transform="translate(.064285 47.837013)" stroke="#000" stroke-width="7.85066"/></g></g><g transform="translate(-.128995 0)"><g transform="translate(0-.000987)"><path d="M313.083,0h-181.592c-8.404,0-16.291,3.232-22.238,9.18L57.018,61.414c-5.947,5.948-9.18,13.834-9.18,22.238v277.333c0,17.39,14.158,31.547,31.547,31.547h233.762c17.39,0,31.547-14.158,31.547-31.547v-329.438C344.501,14.158,330.343,0,313.083,0ZM112.032,37.236h.193995L85.01,64.258l27.022-27.022Zm210.683,79.58v0c0,0,0,2.973823,0,9.049823c0,6.012,0,12.800177,0,12.800177v0v19.394v0c0,25.730987-.820048,21.85,5.256952,21.85c0,0,9.612048,3.880987-5.256952,0v0v181.139c0,5.366-4.331,9.697-9.632,9.697h-233.891c-5.301,0-9.632-4.331-9.632-9.632v-275.07L85.01,64.258c24.243-27.022,24.243-20.945,24.243-27.022l24.63-15.515h179.2c5.301,0,9.632,4.331,9.632,9.632v85.463Z" stroke="#000" stroke-width="7.85066"/></g></g></g></svg>
