<?xml version="1.0" standalone="no"?>
<!DOCTYPE svg PUBLIC "-//W3C//DTD SVG 20010904//EN"
 "http://www.w3.org/TR/2001/REC-SVG-20010904/DTD/svg10.dtd">
<svg version="1.0" xmlns="http://www.w3.org/2000/svg"
 width="1040.000000pt" height="1000.000000pt" viewBox="0 0 1040.000000 1000.000000"
 preserveAspectRatio="xMidYMid meet">

<g transform="translate(0.000000,1000.000000) scale(0.100000,-0.100000)"
fill="#000000" stroke="none">
<path d="M3696 9799 c-202 -27 -387 -119 -531 -266 -139 -141 -186 -234 -304
-599 -72 -225 -564 -1830 -2164 -7066 -293 -962 -532 -1748 -530 -1748 2 0 85
41 185 91 832 417 1861 763 2760 930 98 18 182 35 188 39 5 3 81 251 169 551
88 299 466 1592 841 2874 375 1282 689 2348 699 2370 35 79 138 134 226 120
64 -9 135 -60 162 -115 19 -38 361 -1191 1559 -5241 l167 -566 171 -32 c930
-175 1924 -510 2768 -932 99 -50 182 -89 184 -87 2 2 -166 559 -372 1238
-1530 5034 -2265 7445 -2325 7628 -94 286 -154 404 -261 517 -133 141 -307
243 -481 283 -65 14 -227 16 -1557 18 -835 1 -1515 -2 -1554 -7z"/>
</g>
</svg>
